PathFileType	4	(X/Y/Z)	Kaydara																																																																																																																																																																																																																												
DataRate	CameraRate	NumFrames	NumMarkers	Units	OrigDataRate	OrigDataStartFrame	OrigNumFrames																																																																																																																																																																																																																								
60	60	4	74	mm	60	976	201																																																																																																																																																																																																																								
Frame#	Time	N_lasi			N_rasi			N_rpsi			N_lpsi			N_fneck			N_bneck			N_fhead			N_rhead			N_lhead			N_rshld			N_relbtop			N_relbext			N_relblow			N_rwrext			N_rwrtop			N_rwrlow			N_lshld			N_lelblow			N_lelbtop			N_lwrext			N_lwrtop			N_lwrlow			N_rtopleg			N_ltopleg			N_rkneefr			N_rkneebk			N_rkneeis			N_lkneefr			N_lknssbk			N_lkneeis			N_rankfr			N_rankis			N_rankbk			N_lankfr			N_lankbk			N_lankis			D_lasi			D_rasi			D_lpsi			D_fneck			D_bneck			D_fhead			D_rhead			D_lhead			D_rshld			D_relbtop			D_relbext			D_relblow			D_rwrext			D_rwrtop			D_rwrlow			D_lshld			D_lelbext			D_lelblow			D_lelbtop			D_lwrext			D_lwrtop			D_lwrlow			D_rtopleg			D_ltopleg			D_rkneefr			D_rkneebk			D_rkneeis			D_lkneefr			D_lknssbk			D_lkneeis			D_rankfr			D_rankis			D_rankbk			D_lankfr			D_lankbk			D_lankis			D_rpsi			N_lelbext		
		X1	Y1	Z1	X2	Y2	Z2	X3	Y3	Z3	X4	Y4	Z4	X5	Y5	Z5	X6	Y6	Z6	X7	Y7	Z7	X8	Y8	Z8	X9	Y9	Z9	X10	Y10	Z10	X11	Y11	Z11	X12	Y12	Z12	X13	Y13	Z13	X14	Y14	Z14	X15	Y15	Z15	X16	Y16	Z16	X17	Y17	Z17	X18	Y18	Z18	X19	Y19	Z19	X20	Y20	Z20	X21	Y21	Z21	X22	Y22	Z22	X23	Y23	Z23	X24	Y24	Z24	X25	Y25	Z25	X26	Y26	Z26	X27	Y27	Z27	X28	Y28	Z28	X29	Y29	Z29	X30	Y30	Z30	X31	Y31	Z31	X32	Y32	Z32	X33	Y33	Z33	X34	Y34	Z34	X35	Y35	Z35	X36	Y36	Z36	X37	Y37	Z37	X38	Y38	Z38	X39	Y39	Z39	X40	Y40	Z40	X41	Y41	Z41	X42	Y42	Z42	X43	Y43	Z43	X44	Y44	Z44	X45	Y45	Z45	X46	Y46	Z46	X47	Y47	Z47	X48	Y48	Z48	X49	Y49	Z49	X50	Y50	Z50	X51	Y51	Z51	X52	Y52	Z52	X53	Y53	Z53	X54	Y54	Z54	X55	Y55	Z55	X56	Y56	Z56	X57	Y57	Z57	X58	Y58	Z58	X59	Y59	Z59	X60	Y60	Z60	X61	Y61	Z61	X62	Y62	Z62	X63	Y63	Z63	X64	Y64	Z64	X65	Y65	Z65	X66	Y66	Z66	X67	Y67	Z67	X68	Y68	Z68	X69	Y69	Z69	X70	Y70	Z70	X71	Y71	Z71	X72	Y72	Z72	X73	Y73	Z73	X74	Y74	Z74
																																																																																																																																																																																																																															
26	16.25	-530.39688	1228.69392	-63.11751	-512.57198	1253.4861	-293.23242	-235.64854	1222.30217	-337.47055	-257.31102	1211.49605	22.30977	-376.39259	1607.29126	-147.36192	-238.14753	1660.63568	-159.79517	-417.20409	1819.30099	-157.51752	-234.58038	1757.75955	-221.02907	-277.36671	1773.35373	-70.2413	-307.39351	1546.54449	-412.89978	-254.97681	1228.28674	-458.8953	-354.39548	1165.9687	-414.31736	-345.35023	1229.45595	-444.0749	-284.50815	908.43475	-462.89829	-329.62402	899.29482	-477.54322	-360.35038	913.4597	-443.11611	-289.02203	1538.10486	91.71202	-370.77888	1205.87692	98.15651	-282.04733	1199.67873	108.04162	-324.25896	886.51466	80.23555	-366.68797	880.99785	102.46368	-396.44238	893.31978	59.03454	-413.25005	1050.22392	-425.41004	-371.09325	1008.83499	47.01772	-429.89887	562.77107	-253.82235	-323.54652	578.97301	-321.66073	-367.84821	564.78565	-160.30863	-379.60079	539.27948	-94.98813	-253.69516	555.11745	-35.69229	-255.61661	547.33227	-185.55098	-297.92526	139.80472	-267.98735	-298.95491	154.08272	-187.83781	-217.36883	141.50641	-214.22438	-332.1299	192.87865	-116.67729	-258.965	185.15579	-74.18044	-294.965	164.15579	-158.18044	-477.1925	1037.27852	1731.35498	-430.70946	1058.32176	1448.73566	-280.45612	1132.98019	1743.84964	-416.31207	1567.12036	1599.1951	-277.95359	1595.05554	1607.86499	-465.78518	1772.4588	1602.93198	-299.82153	1737.04132	1529.81995	-312.53672	1732.98416	1685.02075	-335.45284	1564.82269	1444.38934	-400.33615	1459.11194	1152.64366	-446.42685	1494.31168	1196.31721	-351.33289	1521.11145	1186.75667	-478.92448	1734.01611	1108.0928	-421.8116	1746.026	1105.30296	-422.54128	1740.92987	1160.40886	-332.47387	1555.30075	1801.45767	-421.52096	1510.11169	2020.858	-328.31921	1513.80081	2029.07776	-379.94316	1469.43802	2075.96725	-419.59831	1751.13556	2062.59903	-379.34765	1752.17621	2042.16095	-386.78497	1735.578	1996.72623	-335.96561	1006.56967	1405.07874	-338.04062	1009.46518	1805.0769	-374.7958	455.82691	1448.56461	-275.0791	492.2636	1421.49475	-283.30544	460.1506	1542.53174	-364.34166	451.32202	1767.45422	-252.37349	487.70782	1785.76584	-321.61201	444.77119	1677.01126	-324.26929	130.90907	1417.48581	-295.38765	127.81047	1482.73041	-244.04579	128.7077	1418.20938	-325.34992	134.87862	1791.15433	-252.64627	125.96273	1806.3179	-294.93277	124.38661	1732.26517	-245.78428	1148.60313	1528.18756	-376.66954	1169.07051	39.20482
27	16.267	-530.27916	1228.40576	-62.91853	-511.88736	1253.56163	-293.03944	-235.15774	1222.05772	-337.5069	-257.2179	1211.35643	22.19294	-376.38222	1607.30377	-147.58328	-237.75631	1660.54413	-160.42667	-417.10262	1819.14429	-157.75391	-234.29665	1757.88849	-221.09692	-277.24539	1773.43536	-70.35407	-307.02137	1546.25366	-413.12874	-254.41795	1227.94289	-458.87112	-353.88542	1165.68092	-414.28951	-344.87873	1229.12155	-444.17492	-284.15756	908.0381	-462.76897	-329.20761	898.98453	-477.51476	-359.99954	913.22647	-443.17806	-288.53031	1538.58643	91.53787	-370.56526	1205.94765	98.26836	-281.88971	1199.7953	108.05184	-324.07612	886.5287	81.83907	-366.36604	881.28609	104.18846	-395.60932	893.15079	60.34039	-412.67521	1050.19127	-425.13119	-370.7053	1008.74947	47.71949	-429.97166	562.79808	-253.74844	-323.5854	578.99364	-321.5686	-367.94308	564.81316	-160.25845	-379.82147	539.3409	-94.88051	-253.88123	555.15125	-35.56395	-255.73294	547.37469	-185.41666	-297.93217	139.8289	-267.9635	-299.01907	154.10769	-187.81588	-217.75574	141.42763	-214.00316	-332.19322	192.87165	-116.67812	-259.02567	185.14898	-74.13736	-295.02567	164.14898	-158.13736	-477.64595	1037.6609	1731.52496	-430.62057	1057.96021	1448.74191	-280.76929	1133.02567	1744.28604	-415.68279	1566.97601	1598.06793	-277.5024	1594.82239	1606.86493	-465.16464	1772.26715	1602.44934	-299.38049	1737.24899	1529.73755	-311.64465	1732.91	1684.15192	-335.46825	1563.10654	1441.90277	-399.78706	1452.99454	1151.37634	-445.42789	1488.8559	1194.86977	-350.17204	1514.68964	1185.17723	-476.1475	1728.52188	1106.42174	-418.91304	1739.8085	1102.59872	-418.8261	1734.94965	1157.81555	-331.76476	1556.21262	1799.55582	-419.65492	1513.88123	2020.59097	-326.86741	1517.16995	2028.1926	-377.78912	1473.1424	2075.23636	-417.2567	1754.96933	2063.12943	-376.64818	1756.16486	2042.94891	-384.08642	1739.80927	1997.13409	-335.74562	1006.50993	1405.49774	-338.46764	1009.57932	1805.8223	-374.55509	455.78209	1448.8028	-274.80078	492.30209	1421.91193	-283.09595	460.09327	1542.92633	-364.40693	451.27209	1767.77054	-252.51614	487.70153	1786.10809	-321.6703	444.80518	1677.25677	-324.17961	130.96497	1417.52167	-295.37424	127.75901	1482.76321	-243.97747	128.66945	1418.36517	-325.37361	134.80321	1791.21292	-252.7113	125.93721	1806.38824	-294.93692	124.41862	1732.36465	-245.78325	1148.34335	1528.72421	-376.50467	1169.32129	39.22905
28	16.283	-530.13119	1228.36288	-62.73063	-511.3834	1253.50403	-292.93499	-234.82159	1221.85616	-337.38743	-257.34732	1210.43373	19.16324	-376.14975	1607.19101	-147.85735	-237.53057	1660.62317	-160.74648	-417.05585	1818.95828	-157.99454	-234.20879	1757.90939	-221.39469	-276.90296	1773.48038	-70.8878	-306.57488	1545.94711	-413.4267	-253.95359	1227.55669	-458.93456	-353.3992	1165.38536	-414.37851	-344.3605	1228.81393	-444.42101	-283.93579	907.66769	-462.60334	-328.92929	898.64265	-477.39689	-359.78573	912.91489	-443.19092	-288.48032	1538.7027	91.31258	-370.25448	1206.07086	98.23869	-281.66676	1199.98405	108.07673	-323.51463	886.707	83.46677	-365.95222	881.56013	105.48876	-395.01785	893.13522	61.51537	-411.99215	1050.11856	-424.99882	-370.86796	1008.92616	48.43575	-429.89376	562.799	-253.67815	-323.48854	579.04709	-321.4138	-367.9908	564.79401	-160.11713	-379.89567	539.35467	-94.77765	-253.9731	555.07618	-35.39661	-255.72979	547.41768	-185.2424	-297.84966	139.81324	-267.78282	-298.986	154.10378	-187.79633	-217.59455	141.48094	-214.02157	-332.18441	192.87575	-116.66894	-259.06279	185.13277	-74.08772	-295.06279	164.13277	-158.08772	-477.59186	1037.73087	1731.61575	-430.63576	1057.65533	1448.70239	-280.9306	1133.05023	1744.66263	-415.48027	1566.92947	1597.47955	-277.02755	1594.45282	1605.39703	-464.43905	1772.03964	1601.8544	-299.03402	1737.26456	1527.74429	-310.76424	1732.75665	1683.22556	-335.42625	1561.31973	1439.72748	-399.24442	1447.20352	1150.2507	-444.65698	1483.98941	1193.33961	-349.0379	1508.80478	1183.72528	-473.36586	1723.35205	1105.15442	-416.05659	1734.26743	1100.33058	-414.84966	1729.30954	1155.32967	-331.30062	1556.96823	1797.93396	-417.48428	1516.76376	2020.23392	-324.89372	1519.68613	2026.86981	-376.17157	1475.60287	2074.26224	-415.59002	1757.54807	2064.41742	-374.99062	1758.81973	2044.86923	-381.62563	1742.92389	1998.99216	-335.5814	1006.40137	1406.06934	-338.87806	1009.61327	1806.29654	-374.41696	455.79987	1449.02298	-274.72105	492.17712	1422.41043	-283.05874	459.99172	1543.07617	-364.42017	451.22288	1768.05923	-252.5782	487.72827	1786.37299	-321.80504	444.81396	1677.52823	-324.14387	130.97559	1417.56302	-295.34912	127.75345	1482.80502	-243.91298	128.67942	1418.38913	-325.39928	134.80215	1791.22711	-252.71343	125.91896	1806.49887	-294.96098	124.44971	1732.39624	-245.97857	1148.56117	1529.09714	-376.25854	1169.63448	39.18987
29	16.3	-529.89967	1228.517	-62.65804	-511.02711	1253.3905	-292.98326	-234.59892	1221.78162	-337.2599	-257.48796	1210.29854	18.01961	-375.99693	1607.07977	-148.05602	-237.24695	1660.40649	-160.82342	-417.06257	1818.72467	-158.23846	-234.09801	1757.96921	-221.59157	-276.68333	1773.57574	-71.15458	-306.09783	1545.53711	-413.68637	-253.53685	1227.09801	-458.92426	-352.90398	1165.07042	-414.43165	-343.77651	1228.54004	-444.66911	-283.69537	907.25471	-462.34142	-328.70628	898.25806	-477.21279	-359.64821	912.58545	-443.0846	-288.38139	1538.85742	91.10259	-369.92908	1206.21529	98.20556	-281.42862	1200.17868	108.10216	-322.95597	886.91132	84.56142	-365.23769	881.69891	106.40392	-394.33311	893.22998	62.17545	-411.2941	1050.05318	-425.23567	-370.69153	1008.94661	49.02352	-429.82674	562.8051	-253.53336	-323.35773	579.0892	-321.26484	-367.92622	564.80297	-160.01888	-379.82727	539.36092	-94.65787	-253.93538	555.07603	-35.23269	-255.69384	547.43977	-185.09464	-297.77237	139.83428	-267.70081	-298.95927	154.13706	-187.78112	-217.69514	141.44305	-213.89124	-332.17903	192.87169	-116.61304	-259.02128	185.11475	-74.03224	-295.02128	164.11475	-158.03224	-477.67677	1038.03238	1731.94992	-430.80303	1057.36649	1448.79089	-281.02045	1133.08571	1745.12787	-414.91776	1566.7749	1596.22009	-276.46372	1594.36523	1603.98819	-463.91388	1771.99341	1600.97366	-298.43687	1737.44644	1527.35458	-309.97978	1732.65076	1681.97662	-335.07507	1559.55154	1437.46429	-398.44086	1441.76208	1149.09454	-443.62076	1479.27628	1191.95763	-347.94926	1503.22189	1182.45781	-470.77625	1718.66425	1104.04694	-413.39775	1728.99841	1098.60413	-411.12652	1723.96515	1153.39615	-330.80894	1557.54913	1796.47552	-415.2533	1518.64487	2019.89243	-323.33359	1521.37863	2026.2706	-373.95969	1476.96167	2073.69583	-414.40197	1758.99857	2066.54495	-373.59966	1760.59464	2047.1727	-379.6558	1745.21088	2001.19217	-335.55553	1006.28403	1406.55197	-339.05823	1009.72855	1806.72623	-374.39571	455.80067	1449.17984	-274.71014	492.11952	1422.67334	-282.99856	459.91798	1543.3197	-364.51023	451.2785	1768.38058	-252.57519	487.71584	1786.6011	-321.93279	444.83089	1677.81982	-324.14948	131.00987	1417.57248	-295.35643	127.70254	1482.80807	-243.92042	128.67724	1418.39783	-325.42061	134.80085	1791.28479	-252.70348	125.9146	1806.54663	-295.01007	124.45836	1732.46231	-245.94612	1147.40952	1529.25537	-375.99754	1169.96109	39.14921
